<svg width="402" height="211" viewBox="0 0 402 211" fill="none" xmlns="http://www.w3.org/2000/svg">
<g filter="url(#filter0_d)">
<path d="M10 46C10 23.9086 27.9086 6 50 6H387C389.761 6 392 8.23858 392 11V177C392 188.046 383.046 197 372 197H15C12.2386 197 10 194.761 10 192V46Z" fill="#1E1E1E"/>
<path d="M50 7.5H387C388.933 7.5 390.5 9.067 390.5 11V177C390.5 187.217 382.217 195.5 372 195.5H15C13.067 195.5 11.5 193.933 11.5 192V46C11.5 24.737 28.737 7.5 50 7.5Z" stroke="#262626" stroke-width="3"/>
</g>
<defs>
<filter id="filter0_d" x="0" y="0" width="402" height="211" filterUnits="userSpaceOnUse" color-interpolation-filters="sRGB">
<feFlood flood-opacity="0" result="BackgroundImageFix"/>
<feColorMatrix in="SourceAlpha" type="matrix" values="0 0 0 0 0 0 0 0 0 0 0 0 0 0 0 0 0 0 127 0"/>
<feOffset dy="4"/>
<feGaussianBlur stdDeviation="5"/>
<feColorMatrix type="matrix" values="0 0 0 0 0 0 0 0 0 0 0 0 0 0 0 0 0 0 0.5 0"/>
<feBlend mode="normal" in2="BackgroundImageFix" result="effect1_dropShadow"/>
<feBlend mode="normal" in="SourceGraphic" in2="effect1_dropShadow" result="shape"/>
</filter>
</defs>
</svg>
